<svg id="Capa_1" enable-background="new 0 0 510 510" height="512" viewBox="0 0 510 510" width="512" xmlns="http://www.w3.org/2000/svg" xmlns:xlink="http://www.w3.org/1999/xlink"><linearGradient id="lg1"><stop offset="0" stop-color="#0b799d"/><stop offset="1" stop-color="#07485e"/></linearGradient><linearGradient id="SVGID_1_" gradientUnits="userSpaceOnUse" x1="121.926" x2="188.561" xlink:href="#lg1" y1="456.149" y2="522.784"/><linearGradient id="lg2"><stop offset="0" stop-color="#ffda2d"/><stop offset="1" stop-color="#fdbf00"/></linearGradient><linearGradient id="SVGID_2_" gradientUnits="userSpaceOnUse" x1="39.389" x2="58.25" xlink:href="#lg2" y1="482.069" y2="500.929"/><linearGradient id="SVGID_3_" gradientUnits="userSpaceOnUse" x1="319.478" x2="407.347" xlink:href="#lg1" y1="409.667" y2="497.536"/><linearGradient id="SVGID_4_" gradientUnits="userSpaceOnUse" x1="457.023" x2="475.884" xlink:href="#lg2" y1="482.069" y2="500.929"/><linearGradient id="SVGID_5_" gradientUnits="userSpaceOnUse" x1="244.935" x2="265.065" xlink:href="#lg1" y1="457.949" y2="457.949"/><linearGradient id="SVGID_6_" gradientTransform="matrix(1 0 0 -1 0 -1002.574)" gradientUnits="userSpaceOnUse" x1="121.926" x2="188.561" xlink:href="#lg1" y1="-1056.425" y2="-989.79"/><linearGradient id="SVGID_7_" gradientUnits="userSpaceOnUse" x1="39.389" x2="58.25" xlink:href="#lg2" y1="14.343" y2="33.204"/><linearGradient id="SVGID_8_" gradientTransform="matrix(1 0 0 -1 0 -1002.574)" gradientUnits="userSpaceOnUse" x1="319.478" x2="407.347" xlink:href="#lg1" y1="-1102.907" y2="-1015.038"/><linearGradient id="SVGID_9_" gradientUnits="userSpaceOnUse" x1="457.023" x2="475.884" xlink:href="#lg2" y1="14.343" y2="33.204"/><linearGradient id="SVGID_10_" gradientTransform="matrix(1 0 0 -1 0 -1002.574)" gradientUnits="userSpaceOnUse" x1="244.935" x2="265.065" xlink:href="#lg1" y1="-1054.625" y2="-1054.625"/><linearGradient id="SVGID_11_" gradientTransform="matrix(0 1 -1 0 -1618 1064)" gradientUnits="userSpaceOnUse" x1="-908.699" x2="-868.673" xlink:href="#lg1" y1="-1668.271" y2="-1628.245"/><linearGradient id="SVGID_12_" gradientTransform="matrix(0 1 -1 0 -1618 1064)" gradientUnits="userSpaceOnUse" x1="-966.692" x2="-947.832" xlink:href="#lg2" y1="-1646.767" y2="-1627.906"/><linearGradient id="SVGID_13_" gradientTransform="matrix(0 -1 -1 0 -1618 -1849.482)" gradientUnits="userSpaceOnUse" x1="-2204.181" x2="-2164.155" xlink:href="#lg1" y1="-1668.271" y2="-1628.245"/><linearGradient id="SVGID_14_" gradientTransform="matrix(0 -1 -1 0 -1618 -1849.482)" gradientUnits="userSpaceOnUse" x1="-2262.174" x2="-2243.314" xlink:href="#lg2" y1="-1646.767" y2="-1627.906"/><linearGradient id="SVGID_15_" gradientTransform="matrix(0 1 -1 0 -1618 1064)" gradientUnits="userSpaceOnUse" x1="-819.065" x2="-798.935" xlink:href="#lg1" y1="-1670.886" y2="-1670.886"/><linearGradient id="SVGID_16_" gradientTransform="matrix(0 1 1 0 -1467.262 1064)" gradientUnits="userSpaceOnUse" x1="-908.699" x2="-868.673" xlink:href="#lg1" y1="1926.992" y2="1967.018"/><linearGradient id="SVGID_17_" gradientTransform="matrix(0 1 1 0 -1467.262 1064)" gradientUnits="userSpaceOnUse" x1="-966.692" x2="-947.832" xlink:href="#lg2" y1="1948.496" y2="1967.357"/><linearGradient id="SVGID_18_" gradientTransform="matrix(0 -1 1 0 -1467.262 -1849.482)" gradientUnits="userSpaceOnUse" x1="-2204.181" x2="-2164.155" xlink:href="#lg1" y1="1926.992" y2="1967.018"/><linearGradient id="SVGID_19_" gradientTransform="matrix(0 -1 1 0 -1467.262 -1849.482)" gradientUnits="userSpaceOnUse" x1="-2262.174" x2="-2243.314" xlink:href="#lg2" y1="1948.496" y2="1967.357"/><linearGradient id="SVGID_20_" gradientTransform="matrix(0 1 1 0 -1467.262 1064)" gradientUnits="userSpaceOnUse" x1="-819.065" x2="-798.935" xlink:href="#lg1" y1="1924.376" y2="1924.376"/><linearGradient id="lg3"><stop offset="0" stop-color="#edf5ff"/><stop offset="1" stop-color="#b5dbff"/></linearGradient><linearGradient id="SVGID_21_" gradientUnits="userSpaceOnUse" x1="388.448" x2="419.468" xlink:href="#lg3" y1="179.48" y2="203.114"/><linearGradient id="SVGID_22_" gradientUnits="userSpaceOnUse" x1="388.448" x2="419.468" xlink:href="#lg3" y1="249.253" y2="272.886"/><linearGradient id="SVGID_23_" gradientUnits="userSpaceOnUse" x1="388.448" x2="419.468" xlink:href="#lg3" y1="319.025" y2="342.659"/><linearGradient id="SVGID_24_" gradientUnits="userSpaceOnUse" x1="106.465" x2="137.484" xlink:href="#lg3" y1="179.48" y2="203.114"/><linearGradient id="SVGID_25_" gradientUnits="userSpaceOnUse" x1="106.465" x2="137.484" xlink:href="#lg3" y1="249.253" y2="272.886"/><linearGradient id="SVGID_26_" gradientUnits="userSpaceOnUse" x1="106.465" x2="137.484" xlink:href="#lg3" y1="319.025" y2="342.659"/><linearGradient id="SVGID_27_" gradientTransform="matrix(0 1 1 0 1064 -1064)" gradientUnits="userSpaceOnUse" x1="1452.448" x2="1483.467" xlink:href="#lg3" y1="-884.52" y2="-860.886"/><linearGradient id="SVGID_28_" gradientTransform="matrix(0 1 1 0 1064 -1064)" gradientUnits="userSpaceOnUse" x1="1452.448" x2="1483.467" xlink:href="#lg3" y1="-814.747" y2="-791.114"/><linearGradient id="SVGID_29_" gradientTransform="matrix(0 1 1 0 1064 -1064)" gradientUnits="userSpaceOnUse" x1="1452.448" x2="1483.467" xlink:href="#lg3" y1="-744.975" y2="-721.342"/><linearGradient id="SVGID_30_" gradientTransform="matrix(0 1 1 0 1064 -1064)" gradientUnits="userSpaceOnUse" x1="1170.465" x2="1201.484" xlink:href="#lg3" y1="-884.52" y2="-860.886"/><linearGradient id="SVGID_31_" gradientTransform="matrix(0 1 1 0 1064 -1064)" gradientUnits="userSpaceOnUse" x1="1170.465" x2="1201.484" xlink:href="#lg3" y1="-814.747" y2="-791.114"/><linearGradient id="SVGID_32_" gradientTransform="matrix(0 1 1 0 1064 -1064)" gradientUnits="userSpaceOnUse" x1="1170.465" x2="1201.484" xlink:href="#lg3" y1="-744.975" y2="-721.342"/><linearGradient id="SVGID_33_" gradientUnits="userSpaceOnUse" x1="187.146" x2="396.456" xlink:href="#lg1" y1="187.146" y2="396.456"/><linearGradient id="SVGID_34_" gradientTransform="matrix(-1 0 0 -1 -554 -2682)" gradientUnits="userSpaceOnUse" x1="-862.806" x2="-696.831" xlink:href="#lg1" y1="-2990.805" y2="-2824.831"/><linearGradient id="SVGID_35_" gradientUnits="userSpaceOnUse" x1="217.593" x2="310.118" y1="217.593" y2="310.118"><stop offset="0" stop-color="#b9dd39"/><stop offset="1" stop-color="#90cc1c"/></linearGradient><linearGradient id="SVGID_36_" gradientUnits="userSpaceOnUse" x1="211.258" x2="225.733" xlink:href="#lg2" y1="210.044" y2="221.072"/><linearGradient id="SVGID_37_" gradientUnits="userSpaceOnUse" x1="251.651" x2="266.126" xlink:href="#lg2" y1="210.044" y2="221.072"/><linearGradient id="SVGID_38_" gradientUnits="userSpaceOnUse" x1="291.702" x2="306.176" xlink:href="#lg2" y1="210.044" y2="221.072"/><linearGradient id="SVGID_39_" gradientUnits="userSpaceOnUse" x1="211.258" x2="225.733" xlink:href="#lg2" y1="252.318" y2="263.346"/><linearGradient id="SVGID_40_" gradientUnits="userSpaceOnUse" x1="251.651" x2="266.126" xlink:href="#lg2" y1="252.318" y2="263.346"/><linearGradient id="SVGID_41_" gradientUnits="userSpaceOnUse" x1="291.702" x2="306.176" xlink:href="#lg2" y1="252.318" y2="263.346"/><linearGradient id="SVGID_42_" gradientUnits="userSpaceOnUse" x1="211.258" x2="225.733" xlink:href="#lg2" y1="294.593" y2="305.621"/><linearGradient id="SVGID_43_" gradientUnits="userSpaceOnUse" x1="251.651" x2="266.126" xlink:href="#lg2" y1="294.593" y2="305.621"/><linearGradient id="SVGID_44_" gradientUnits="userSpaceOnUse" x1="291.702" x2="306.176" xlink:href="#lg2" y1="294.593" y2="305.621"/><g><g><g><g><g><path d="m158.956 499.246h-106.234c-5.559 0-10.065-4.506-10.065-10.065s4.507-10.065 10.065-10.065h106.234c8.245 0 14.954-6.708 14.954-14.954v-48.198c0-5.559 4.507-10.065 10.065-10.065 5.559 0 10.065 4.506 10.065 10.065v48.198c0 19.345-15.739 35.084-35.084 35.084z" fill="url(#SVGID_1_)"/><circle cx="46.183" cy="488.863" fill="url(#SVGID_2_)" r="21.137"/></g><g><path d="m351.044 499.246h106.234c5.559 0 10.065-4.506 10.065-10.065s-4.507-10.065-10.065-10.065h-106.234c-8.245 0-14.954-6.708-14.954-14.954v-48.198c0-5.559-4.507-10.065-10.065-10.065s-10.065 4.506-10.065 10.065v48.198c0 19.345 15.739 35.084 35.084 35.084z" fill="url(#SVGID_3_)"/><circle cx="463.817" cy="488.863" fill="url(#SVGID_4_)" r="21.137"/></g></g><path d="m255 510c-5.559 0-10.065-4.506-10.065-10.065v-83.971c0-5.559 4.506-10.065 10.065-10.065 5.559 0 10.065 4.506 10.065 10.065v83.971c0 5.559-4.506 10.065-10.065 10.065z" fill="url(#SVGID_5_)"/></g><g><g><g><path d="m158.956 10.754h-106.234c-5.559 0-10.065 4.506-10.065 10.065s4.507 10.065 10.065 10.065h106.234c8.245 0 14.954 6.708 14.954 14.954v48.198c0 5.559 4.507 10.065 10.065 10.065 5.559 0 10.065-4.506 10.065-10.065v-48.197c0-19.346-15.739-35.085-35.084-35.085z" fill="url(#SVGID_6_)"/><circle cx="46.183" cy="21.137" fill="url(#SVGID_7_)" r="21.137"/></g><g><path d="m351.044 10.754h106.234c5.559 0 10.065 4.506 10.065 10.065s-4.507 10.065-10.065 10.065h-106.234c-8.245 0-14.954 6.708-14.954 14.954v48.198c0 5.559-4.507 10.065-10.065 10.065s-10.065-4.506-10.065-10.065v-48.197c0-19.346 15.739-35.085 35.084-35.085z" fill="url(#SVGID_8_)"/><circle cx="463.817" cy="21.137" fill="url(#SVGID_9_)" r="21.137"/></g></g><path d="m255 0c-5.559 0-10.065 4.506-10.065 10.065v83.971c0 5.559 4.506 10.065 10.065 10.065 5.559 0 10.065-4.506 10.065-10.065v-83.971c0-5.559-4.506-10.065-10.065-10.065z" fill="url(#SVGID_10_)"/></g></g><g><g><g><path d="m11.59 158.956v-48.315c0-5.559 4.506-10.065 10.065-10.065s10.065 4.507 10.065 10.065v48.315c0 8.245 6.708 14.954 14.954 14.954h48.198c5.559 0 10.065 4.507 10.065 10.065s-4.506 10.065-10.065 10.065h-48.198c-19.345 0-35.084-15.739-35.084-35.084z" fill="url(#SVGID_11_)"/><circle cx="21.972" cy="104.102" fill="url(#SVGID_12_)" r="21.137"/></g><g><path d="m11.59 351.044v48.315c0 5.559 4.506 10.065 10.065 10.065s10.065-4.507 10.065-10.065v-48.315c0-8.245 6.708-14.954 14.954-14.954h48.198c5.559 0 10.065-4.507 10.065-10.065s-4.506-10.065-10.065-10.065h-48.198c-19.345 0-35.084 15.739-35.084 35.084z" fill="url(#SVGID_13_)"/><circle cx="21.972" cy="405.898" fill="url(#SVGID_14_)" r="21.137"/></g><path d="m.835 255c0-5.559 4.506-10.065 10.065-10.065h83.971c5.559 0 10.065 4.506 10.065 10.065 0 5.559-4.506 10.065-10.065 10.065h-83.97c-5.559 0-10.066-4.506-10.066-10.065z" fill="url(#SVGID_15_)"/></g><g><g><path d="m498.41 158.956v-48.315c0-5.559-4.506-10.065-10.065-10.065s-10.065 4.507-10.065 10.065v48.315c0 8.245-6.708 14.954-14.954 14.954h-48.198c-5.559 0-10.065 4.507-10.065 10.065s4.506 10.065 10.065 10.065h48.198c19.345 0 35.084-15.739 35.084-35.084z" fill="url(#SVGID_16_)"/><circle cx="488.028" cy="104.102" fill="url(#SVGID_17_)" r="21.137"/></g><g><path d="m498.41 351.044v48.315c0 5.559-4.506 10.065-10.065 10.065s-10.065-4.507-10.065-10.065v-48.315c0-8.245-6.708-14.954-14.954-14.954h-48.198c-5.559 0-10.065-4.507-10.065-10.065s4.506-10.065 10.065-10.065h48.198c19.345 0 35.084 15.739 35.084 35.084z" fill="url(#SVGID_18_)"/><circle cx="488.028" cy="405.898" fill="url(#SVGID_19_)" r="21.137"/></g><path d="m509.165 255c0-5.559-4.506-10.065-10.065-10.065h-83.971c-5.559 0-10.065 4.506-10.065 10.065 0 5.559 4.506 10.065 10.065 10.065h83.971c5.558 0 10.065-4.506 10.065-10.065z" fill="url(#SVGID_20_)"/></g></g><g><g><g><path d="m405.411 220.114h-18.839c-13.656 0-24.726-11.07-24.726-24.726v-20.321c0-13.656 11.07-24.726 24.726-24.726h18.839c13.656 0 24.726 11.07 24.726 24.726v20.321c0 13.656-11.07 24.726-24.726 24.726z" fill="url(#SVGID_21_)"/><path d="m405.411 289.886h-18.839c-13.656 0-24.726-11.07-24.726-24.726v-20.32c0-13.656 11.07-24.726 24.726-24.726h18.839c13.656 0 24.726 11.07 24.726 24.726v20.321c0 13.655-11.07 24.725-24.726 24.725z" fill="url(#SVGID_22_)"/><path d="m405.411 359.658h-18.839c-13.656 0-24.726-11.07-24.726-24.726v-20.321c0-13.656 11.07-24.726 24.726-24.726h18.839c13.656 0 24.726 11.07 24.726 24.726v20.321c0 13.656-11.07 24.726-24.726 24.726z" fill="url(#SVGID_23_)"/></g><g><path d="m123.428 220.114h-18.839c-13.656 0-24.726-11.07-24.726-24.726v-20.321c0-13.656 11.07-24.726 24.726-24.726h18.839c13.656 0 24.726 11.07 24.726 24.726v20.321c-.001 13.656-11.071 24.726-24.726 24.726z" fill="url(#SVGID_24_)"/><path d="m123.428 289.886h-18.839c-13.656 0-24.726-11.07-24.726-24.726v-20.32c0-13.656 11.07-24.726 24.726-24.726h18.839c13.656 0 24.726 11.07 24.726 24.726v20.321c-.001 13.655-11.071 24.725-24.726 24.725z" fill="url(#SVGID_25_)"/><path d="m123.428 359.658h-18.839c-13.656 0-24.726-11.07-24.726-24.726v-20.321c0-13.656 11.07-24.726 24.726-24.726h18.839c13.656 0 24.726 11.07 24.726 24.726v20.321c-.001 13.656-11.071 24.726-24.726 24.726z" fill="url(#SVGID_26_)"/></g></g><g><g><path d="m220.114 405.411v-18.839c0-13.656-11.07-24.726-24.726-24.726h-20.321c-13.656 0-24.726 11.07-24.726 24.726v18.839c0 13.656 11.07 24.726 24.726 24.726h20.321c13.656 0 24.726-11.07 24.726-24.726z" fill="url(#SVGID_27_)"/><path d="m289.886 405.411v-18.839c0-13.656-11.07-24.726-24.726-24.726h-20.32c-13.656 0-24.726 11.07-24.726 24.726v18.839c0 13.656 11.07 24.726 24.726 24.726h20.321c13.655 0 24.725-11.07 24.725-24.726z" fill="url(#SVGID_28_)"/><path d="m359.658 405.411v-18.839c0-13.656-11.07-24.726-24.726-24.726h-20.321c-13.656 0-24.726 11.07-24.726 24.726v18.839c0 13.656 11.07 24.726 24.726 24.726h20.321c13.656 0 24.726-11.07 24.726-24.726z" fill="url(#SVGID_29_)"/></g><g><path d="m220.114 123.428v-18.839c0-13.656-11.07-24.726-24.726-24.726h-20.321c-13.656 0-24.726 11.07-24.726 24.726v18.839c0 13.656 11.07 24.726 24.726 24.726h20.321c13.656-.001 24.726-11.071 24.726-24.726z" fill="url(#SVGID_30_)"/><path d="m289.886 123.428v-18.839c0-13.656-11.07-24.726-24.726-24.726h-20.32c-13.656 0-24.726 11.07-24.726 24.726v18.839c0 13.656 11.07 24.726 24.726 24.726h20.321c13.655-.001 24.725-11.071 24.725-24.726z" fill="url(#SVGID_31_)"/><path d="m359.658 123.428v-18.839c0-13.656-11.07-24.726-24.726-24.726h-20.321c-13.656 0-24.726 11.07-24.726 24.726v18.839c0 13.656 11.07 24.726 24.726 24.726h20.321c13.656-.001 24.726-11.071 24.726-24.726z" fill="url(#SVGID_32_)"/></g></g><g><path d="m355.041 393.229h-200.082c-21.09 0-38.188-17.097-38.188-38.188v-200.082c0-21.09 17.097-38.188 38.188-38.188h200.082c21.09 0 38.188 17.097 38.188 38.188v200.082c0 21.09-17.098 38.188-38.188 38.188z" fill="url(#SVGID_33_)"/><path d="m175.671 145.39h158.657c16.724 0 30.281 13.557 30.281 30.281v158.657c0 16.724-13.557 30.281-30.281 30.281h-158.657c-16.724 0-30.281-13.557-30.281-30.281v-158.657c0-16.724 13.557-30.281 30.281-30.281z" fill="url(#SVGID_34_)"/><path d="m317.33 341.122h-124.66c-13.14 0-23.793-10.652-23.793-23.793v-124.659c0-13.14 10.652-23.793 23.793-23.793h124.66c13.14 0 23.793 10.652 23.793 23.793v124.66c-.001 13.14-10.653 23.792-23.793 23.792z" fill="url(#SVGID_35_)"/></g></g><g><g><path d="m219.926 228.566h-10.296c-5.905 0-10.692-4.787-10.692-10.692v-10.296c0-5.905 4.787-10.692 10.692-10.692h10.296c5.905 0 10.692 4.787 10.692 10.692v10.296c.001 5.905-4.786 10.692-10.692 10.692z" fill="url(#SVGID_36_)"/><path d="m260.319 228.566h-10.296c-5.905 0-10.692-4.787-10.692-10.692v-10.296c0-5.905 4.787-10.692 10.692-10.692h10.296c5.905 0 10.692 4.787 10.692 10.692v10.296c.001 5.905-4.786 10.692-10.692 10.692z" fill="url(#SVGID_37_)"/><g><path d="m300.37 228.566h-10.296c-5.905 0-10.692-4.787-10.692-10.692v-10.296c0-5.905 4.787-10.692 10.692-10.692h10.296c5.905 0 10.692 4.787 10.692 10.692v10.296c0 5.905-4.787 10.692-10.692 10.692z" fill="url(#SVGID_38_)"/></g></g><g><path d="m219.926 270.84h-10.296c-5.905 0-10.692-4.787-10.692-10.692v-10.296c0-5.905 4.787-10.692 10.692-10.692h10.296c5.905 0 10.692 4.787 10.692 10.692v10.296c.001 5.905-4.786 10.692-10.692 10.692z" fill="url(#SVGID_39_)"/><path d="m260.319 270.84h-10.296c-5.905 0-10.692-4.787-10.692-10.692v-10.296c0-5.905 4.787-10.692 10.692-10.692h10.296c5.905 0 10.692 4.787 10.692 10.692v10.296c.001 5.905-4.786 10.692-10.692 10.692z" fill="url(#SVGID_40_)"/><g><path d="m300.37 270.84h-10.296c-5.905 0-10.692-4.787-10.692-10.692v-10.296c0-5.905 4.787-10.692 10.692-10.692h10.296c5.905 0 10.692 4.787 10.692 10.692v10.296c0 5.905-4.787 10.692-10.692 10.692z" fill="url(#SVGID_41_)"/></g></g><g><path d="m219.926 313.115h-10.296c-5.905 0-10.692-4.787-10.692-10.692v-10.296c0-5.905 4.787-10.692 10.692-10.692h10.296c5.905 0 10.692 4.787 10.692 10.692v10.296c.001 5.905-4.786 10.692-10.692 10.692z" fill="url(#SVGID_42_)"/><path d="m260.319 313.115h-10.296c-5.905 0-10.692-4.787-10.692-10.692v-10.296c0-5.905 4.787-10.692 10.692-10.692h10.296c5.905 0 10.692 4.787 10.692 10.692v10.296c.001 5.905-4.786 10.692-10.692 10.692z" fill="url(#SVGID_43_)"/><g><path d="m300.37 313.115h-10.296c-5.905 0-10.692-4.787-10.692-10.692v-10.296c0-5.905 4.787-10.692 10.692-10.692h10.296c5.905 0 10.692 4.787 10.692 10.692v10.296c0 5.905-4.787 10.692-10.692 10.692z" fill="url(#SVGID_44_)"/></g></g></g></g></svg>